# xmcd
#
# Track frame offsets: 
#        150
#        13359
#        27439
#        38886
#        51017
#        63947
#        76406
#        89228
#        103102
#        117214
#        130314
#        144367
#        155866
#        168323
#        182387
#        195060
#        207647
#        222561
#        235648
#        249500
#        264094
#        277258
#        289616
#        301861
#        314021
#
# Disc length: 4337 seconds
#
# Revision: 1
# Processed by: cddbd v1.5.2PL0 Copyright (c) Steve Scherf et al.
# Submitted via: ExactAudioCopy v1.0b1
#
DISCID=6f10ef19
DTITLE=Little Walter - The Complete Chess Masters 1950-1967 [CD2]
DYEAR=2009
DGENRE=Blues
TTITLE0=Blues With A Feeling (alt)
TTITLE1=Blues With A Feeling
TTITLE2=Last Boogie
TTITLE3=Too Late
TTITLE4=Fast Boogie
TTITLE5=Lights Out
TTITLE6=Fast Large One
TTITLE7=You're So Fine
TTITLE8=My Kind Of Baby
TTITLE9=Come Back Baby
TTITLE10=Rocker
TTITLE11=I Love You So (Oh Baby)
TTITLE12=Oh Baby
TTITLE13=I Got To Find My Baby (alt)
TTITLE14=I Got To Find My Baby
TTITLE15=Big Leg Mama
TTITLE16=Mercy Babe (My Babe)
TTITLE17=Last Night (version 1)
TTITLE18=You'd Better Watch Yourself
TTITLE19=Blue Light
TTITLE20=Instrumental
TTITLE21=Last Night
TTITLE22=Mellow Down Easy
TTITLE23=My Babe
TTITLE24=My Babe (overdubbed)
EXTD=
EXTT0=
EXTT1=
EXTT2=
EXTT3=
EXTT4=
EXTT5=
EXTT6=
EXTT7=
EXTT8=
EXTT9=
EXTT10=
EXTT11=
EXTT12=
EXTT13=
EXTT14=
EXTT15=
EXTT16=
EXTT17=
EXTT18=
EXTT19=
EXTT20=
EXTT21=
EXTT22=
EXTT23=
EXTT24=
PLAYORDER=
